# xmcd
#
# Track frame offsets:
#	150
#	18326
#	36502
#
# Disc length: 726 seconds
#
# Revision: 0
# Processed by: cddbd v1.5.1PL0 Copyright (c) Steve Scherf et al.
# Submitted via: audiograbber 1.83.01
#
DISCID=1e02d403
DTITLE=Amanda Wilkinson - Gone From Love Too Long - Promo Single
DYEAR=2003
DGENRE=Country
TTITLE0=Gone From Love Too Long
TTITLE1=Gone From Love Too Long
TTITLE2=Gone From Love Too Long
EXTD=
EXTT0=
EXTT1=
EXTT2=
PLAYORDER=
